<svg width="20" height="20" viewBox="0 0 20 20" fill="none" xmlns="http://www.w3.org/2000/svg">
<path d="M9.13357 0.454289L7.13531 2.19427H10.0011V0.131355C9.69179 0.130355 9.38219 0.238 9.13357 0.454289Z" fill="#FDF0BC"/>
<path d="M10.8582 0.452282C10.6122 0.239326 10.3073 0.132347 10.002 0.131348V2.19426H12.8678L10.8582 0.452282Z" fill="url(#paint0_linear_85_2272)"/>
<path d="M3.02941 3.30703L2.61716 5.9245L4.81238 4.08254L3.48631 2.5022C3.2487 2.70016 3.08073 2.98177 3.02941 3.30703Z" fill="#FDF0BC"/>
<path d="M4.34736 2.19769C4.02209 2.19236 3.71948 2.30667 3.4852 2.50229L4.81126 4.08264L7.00648 2.24068L4.34736 2.19769Z" fill="url(#paint1_linear_85_2272)"/>
<path d="M0.188262 9.41561L1.55465 11.6858L2.05222 8.86372L0.0209625 8.50513C-0.0340263 8.80973 0.0182964 9.13333 0.188262 9.41561Z" fill="#FDF0BC"/>
<path d="M0.48627 7.71759C0.233988 7.92288 0.075687 8.20482 0.021698 8.50509L2.05328 8.86335L2.55085 6.04126L0.48627 7.71759Z" fill="url(#paint2_linear_85_2272)"/>
<path d="M1.93713 15.9219L4.44328 16.7824L3.01057 14.3005L1.22394 15.332C1.37757 15.6006 1.62552 15.8149 1.93713 15.9219Z" fill="url(#paint3_linear_85_2272)"/>
<path d="M1.07427 14.4302C1.01262 14.7495 1.07261 15.0674 1.22424 15.3324L3.01088 14.3009L1.57817 11.8191L1.07427 14.4302Z" fill="url(#paint4_linear_85_2272)"/>
<path d="M7.45966 19.781L9.93249 18.8295L7.2397 17.8494L6.53418 19.788C6.82445 19.8946 7.15239 19.8993 7.45966 19.781Z" fill="url(#paint5_linear_85_2272)"/>
<path d="M5.83879 19.1931C5.99676 19.4774 6.24704 19.6823 6.53365 19.7876L7.23917 17.849L4.54639 16.8689L5.83879 19.1931Z" fill="url(#paint6_linear_85_2272)"/>
<path d="M14.1724 19.1879L15.4552 16.8694L12.7624 17.8495L13.4679 19.7881C13.7585 19.6831 14.0128 19.4762 14.1724 19.1879Z" fill="url(#paint7_linear_85_2272)"/>
<path d="M12.5531 19.7791C12.8571 19.8954 13.1803 19.8914 13.4676 19.7877L12.7621 17.8491L10.0693 18.8293L12.5531 19.7791Z" fill="url(#paint8_linear_85_2272)"/>
<path d="M18.93 14.4196L18.4225 11.8191L16.9898 14.3009L18.7764 15.3324C18.9317 15.0648 18.9934 14.7428 18.93 14.4196Z" fill="url(#paint9_linear_85_2272)"/>
<path d="M18.0707 15.9132C18.3779 15.8069 18.6232 15.5959 18.7768 15.332L16.9902 14.3005L15.5575 16.7824L18.0707 15.9132Z" fill="url(#paint10_linear_85_2272)"/>
<path d="M19.5126 7.70692L17.452 6.04126L17.9496 8.86335L19.9811 8.50509C19.9288 8.20049 19.7689 7.91421 19.5126 7.70692Z" fill="url(#paint11_linear_85_2272)"/>
<path d="M19.8132 9.40428C19.9805 9.12533 20.0329 8.80607 19.9805 8.50513L17.9489 8.86339L18.4465 11.6855L19.8132 9.40428Z" fill="url(#paint12_linear_85_2272)"/>
<path d="M15.6437 2.19187L12.9946 2.24019L15.1898 4.08215L16.5159 2.50181C16.2796 2.30252 15.9733 2.18587 15.6437 2.19187Z" fill="url(#paint13_linear_85_2272)"/>
<path d="M16.9642 3.29886C16.9129 2.97759 16.7479 2.69965 16.5146 2.50269L15.1886 4.08303L17.3838 5.92499L16.9642 3.29886Z" fill="url(#paint14_linear_85_2272)"/>
<path d="M9.99958 17.264C13.8648 17.264 16.9982 14.1306 16.9982 10.2654C16.9982 6.40021 13.8648 3.26685 9.99958 3.26685C6.13438 3.26685 3.00101 6.40021 3.00101 10.2654C3.00101 14.1306 6.13438 17.264 9.99958 17.264Z" fill="url(#paint15_radial_85_2272)"/>
<path d="M9.99982 2.6416C5.78934 2.6416 2.37604 6.05457 2.37604 10.2651C2.37604 14.4755 5.78934 17.8888 9.99982 17.8888C14.2103 17.8888 17.6236 14.4755 17.6236 10.2651C17.6236 6.05457 14.2103 2.6416 9.99982 2.6416ZM9.99982 17.263C6.13494 17.263 3.00191 14.1299 3.00191 10.2651C3.00191 6.40017 6.13494 3.26714 9.99982 3.26714C13.8647 3.26714 16.9977 6.40017 16.9977 10.2651C16.9977 14.1299 13.8647 17.263 9.99982 17.263Z" fill="url(#paint16_linear_85_2272)"/>
<path d="M10.0003 1.6687C5.2526 1.6687 1.40405 5.51725 1.40405 10.265C1.40405 15.0127 5.2526 18.8612 10.0003 18.8612C14.748 18.8612 18.5966 15.0127 18.5966 10.265C18.5966 5.51725 14.748 1.6687 10.0003 1.6687ZM10.0003 17.8851C5.79183 17.8851 2.38019 14.4734 2.38019 10.265C2.38019 6.05648 5.79183 2.64517 10.0003 2.64517C14.2088 2.64517 17.6204 6.05681 17.6204 10.2653C17.6204 14.4738 14.2088 17.8851 10.0003 17.8851Z" fill="url(#paint17_linear_85_2272)"/>
<path d="M8.07174 13.7723C7.9551 13.7723 7.84679 13.735 7.75114 13.6683C7.73881 13.66 7.73048 13.6517 7.72215 13.6433C7.71381 13.6393 7.70948 13.631 7.70548 13.6267C7.68882 13.614 7.68049 13.6017 7.66816 13.5893C7.65983 13.581 7.65549 13.5727 7.64749 13.5643L7.6435 13.5603C7.63516 13.552 7.63083 13.5437 7.62683 13.5353L7.6185 13.5227C7.60184 13.4977 7.58951 13.4727 7.57684 13.4477C7.57284 13.4354 7.56851 13.4227 7.56418 13.4104C7.56018 13.3977 7.55585 13.3814 7.55185 13.3687C7.54752 13.3521 7.54352 13.3314 7.53918 13.3104C7.53918 13.3021 7.53518 13.2897 7.53518 13.2814C7.53518 13.2647 7.53119 13.2481 7.53119 13.2314C7.53119 13.2024 7.53518 13.1731 7.53952 13.1398L7.86012 11.2748L6.50706 9.95507C6.48206 9.93008 6.45707 9.90108 6.43641 9.87176C6.41141 9.83443 6.39475 9.8051 6.38242 9.77178C6.37842 9.75945 6.37009 9.74278 6.36576 9.72179C6.35309 9.6718 6.34509 9.62181 6.34509 9.56782C6.34509 9.55116 6.34509 9.53882 6.34509 9.52216C6.34509 9.49717 6.34909 9.47217 6.35742 9.44718C6.35742 9.44318 6.36142 9.43485 6.36142 9.43051C6.36576 9.41785 6.36576 9.40552 6.36975 9.39319C6.36975 9.38919 6.37375 9.38052 6.37809 9.36819C6.38209 9.35553 6.38642 9.3432 6.39475 9.33087C6.40708 9.30587 6.41974 9.28088 6.44041 9.25188C6.44874 9.23522 6.46107 9.22289 6.47373 9.21023C6.47373 9.21023 6.47373 9.20623 6.47773 9.20623L6.54439 9.09791H6.60271C6.61104 9.09358 6.61504 9.08958 6.62337 9.08525C6.6317 9.08125 6.64836 9.07292 6.6607 9.06459C6.67736 9.05626 6.69802 9.04792 6.72302 9.03959C6.73135 9.03559 6.74368 9.03126 6.75634 9.03126C6.77301 9.02726 6.78967 9.02293 6.81033 9.0186L8.68362 8.74799L9.50778 7.062C9.59943 6.8747 9.78673 6.75806 9.99468 6.75806C10.1447 6.75806 10.2903 6.82038 10.3943 6.92869C10.4109 6.94935 10.4276 6.96601 10.4399 6.98701C10.4566 7.01201 10.4733 7.037 10.4856 7.062L11.3224 8.75199L13.1914 9.0226C13.3997 9.05159 13.5703 9.19756 13.6326 9.39719C13.6369 9.40985 13.6409 9.41785 13.6409 9.43051C13.6409 9.43451 13.6409 9.43451 13.6449 9.43885C13.6489 9.45151 13.6533 9.46384 13.6533 9.4805C13.6533 9.4845 13.6533 9.4845 13.6533 9.48883C13.6573 9.5055 13.6573 9.51783 13.6573 9.53449C13.6616 9.61348 13.6489 9.69679 13.6156 9.77178C13.603 9.8051 13.5866 9.8341 13.5656 9.86343L13.5613 9.86743C13.5406 9.89642 13.5156 9.92575 13.4906 9.95074L12.1376 11.2705L12.4582 13.1311C12.4915 13.3351 12.4125 13.539 12.2416 13.664C12.1999 13.693 12.1499 13.7223 12.0999 13.739C12.0956 13.739 12.0916 13.7433 12.0833 13.7433C12.0293 13.76 11.9749 13.7683 11.921 13.7683C11.8336 13.7683 11.746 13.7476 11.667 13.706L9.99368 12.8275L8.32036 13.706C8.24637 13.7516 8.15906 13.7723 8.07174 13.7723Z" fill="#DF771E"/>
<path d="M9.99416 7.02441V10.467L8.84506 8.99768L9.74421 7.17872C9.79854 7.07874 9.89852 7.02441 9.99416 7.02441Z" fill="#FFFAF6"/>
<path d="M13.3799 9.4847L9.99954 10.4672L11.1483 8.9978L13.1549 9.28908C13.2675 9.30974 13.3465 9.38872 13.3799 9.4847Z" fill="#FEE0AC"/>
<path d="M12.0848 13.4515L9.99521 10.4668L11.8518 11.1787L12.1931 13.1769C12.2178 13.2936 12.1678 13.3932 12.0848 13.4515Z" fill="#ECB76B"/>
<path d="M9.9953 10.4668V12.5274L8.201 13.4722C8.09702 13.5262 7.98871 13.5095 7.9054 13.4515L9.9953 10.4668Z" fill="#F1A341"/>
<path d="M11.1443 8.99768L9.99521 10.467V7.02441C10.0702 7.02441 10.1452 7.05341 10.1992 7.11173C10.2075 7.12006 10.2158 7.13239 10.2242 7.14506C10.2325 7.15772 10.2408 7.17005 10.2448 7.18238L11.1443 8.99768Z" fill="#FFE9BA"/>
<path d="M13.3712 9.67182C13.3629 9.68848 13.3545 9.70515 13.3462 9.72181C13.3335 9.73847 13.3212 9.75081 13.3089 9.76747L11.8562 11.1828L9.99954 10.471L13.3799 9.48853C13.3799 9.49252 13.3839 9.49686 13.3839 9.50119C13.3839 9.50552 13.3882 9.50952 13.3882 9.51785C13.3882 9.52219 13.3882 9.52219 13.3882 9.52219C13.3882 9.52618 13.3882 9.53052 13.3882 9.53452C13.3882 9.54285 13.3882 9.54718 13.3882 9.55518C13.3922 9.5925 13.3879 9.63416 13.3712 9.67182Z" fill="#E49632"/>
<path d="M12.0851 13.4515C12.0645 13.4682 12.0395 13.4805 12.0101 13.4888C12.0061 13.4888 12.0061 13.4888 12.0018 13.4928C11.9351 13.5135 11.8602 13.5095 11.7895 13.4722L9.99521 12.5274V10.4668L12.0851 13.4515Z" fill="#E29136"/>
<path d="M9.99446 10.4668L7.90488 13.4515C7.90088 13.4472 7.89655 13.4432 7.89255 13.4389C7.88855 13.4349 7.88422 13.4305 7.87989 13.4262C7.87589 13.4222 7.87156 13.4179 7.86323 13.4095C7.85889 13.4055 7.85489 13.4012 7.85056 13.3969C7.84623 13.3925 7.84656 13.3929 7.84656 13.3885C7.84256 13.3845 7.83823 13.3802 7.83823 13.3759C7.8299 13.3635 7.82157 13.3509 7.81757 13.3385C7.81357 13.3345 7.81357 13.3259 7.80924 13.3179C7.80524 13.3096 7.80524 13.3052 7.8009 13.2972C7.79691 13.2889 7.79691 13.2766 7.79691 13.2682C7.79691 13.2642 7.79691 13.2556 7.79691 13.2516C7.79691 13.2432 7.79691 13.2349 7.79691 13.2266C7.79691 13.2099 7.79691 13.1932 7.8009 13.1766L8.14217 11.1783L9.99446 10.4668Z" fill="#FED891"/>
<path d="M9.99451 10.4671L6.6142 9.48461C6.6142 9.48061 6.6182 9.47628 6.6182 9.47195C6.6222 9.46361 6.6222 9.45528 6.62653 9.45128C6.63486 9.43462 6.64319 9.42229 6.65152 9.40963C6.65552 9.40129 6.65985 9.39696 6.66819 9.38896C6.67252 9.38496 6.67652 9.3763 6.68485 9.3723C6.68885 9.3683 6.69751 9.35997 6.70151 9.35564C6.70551 9.3513 6.71384 9.34731 6.71818 9.34297C6.72651 9.33897 6.73484 9.33031 6.74317 9.32631C6.74717 9.32231 6.7555 9.31798 6.76383 9.31798C6.7765 9.31398 6.7845 9.30965 6.79716 9.30531C6.80116 9.30531 6.80549 9.30131 6.81382 9.30131C6.82215 9.29732 6.83449 9.29732 6.84715 9.29298L8.85374 9.00171L9.99451 10.4671Z" fill="#FFF3D9"/>
<path d="M9.99598 10.4669L8.14369 11.1828L6.69098 9.76741C6.67432 9.75475 6.66599 9.73842 6.65366 9.72175C6.64532 9.70509 6.63299 9.68843 6.62866 9.67176C6.62466 9.66343 6.62033 9.6551 6.62033 9.64677C6.612 9.62177 6.60767 9.59278 6.60767 9.56778C6.60767 9.55945 6.60767 9.55112 6.60767 9.54279C6.60767 9.53046 6.60767 9.52213 6.612 9.50946C6.612 9.50546 6.616 9.50113 6.616 9.4928C6.616 9.4888 6.62 9.48447 6.62 9.48047L9.99598 10.4669Z" fill="#ECB76B"/>
<defs>
<linearGradient id="paint0_linear_85_2272" x1="10.1421" y1="1.1628" x2="12.7737" y2="1.1628" gradientUnits="userSpaceOnUse">
<stop stop-color="#FEE998"/>
<stop offset="1" stop-color="#FCC15B"/>
</linearGradient>
<linearGradient id="paint1_linear_85_2272" x1="4.28648" y1="3.17574" x2="6.91284" y2="0.9718" gradientUnits="userSpaceOnUse">
<stop stop-color="#FEE998"/>
<stop offset="1" stop-color="#FCC15B"/>
</linearGradient>
<linearGradient id="paint2_linear_85_2272" x1="2.59785" y1="6.03536" x2="1.1158" y2="8.47016" gradientUnits="userSpaceOnUse">
<stop stop-color="#FCC15B"/>
<stop offset="1" stop-color="#FEE998"/>
</linearGradient>
<linearGradient id="paint3_linear_85_2272" x1="1.89963" y1="14.7585" x2="4.47558" y2="16.4523" gradientUnits="userSpaceOnUse">
<stop stop-color="#FFC05F"/>
<stop offset="1" stop-color="#ED892B"/>
</linearGradient>
<linearGradient id="paint4_linear_85_2272" x1="1.60755" y1="11.8731" x2="2.06628" y2="14.7666" gradientUnits="userSpaceOnUse">
<stop stop-color="#FCC15B"/>
<stop offset="1" stop-color="#FEE998"/>
</linearGradient>
<linearGradient id="paint5_linear_85_2272" x1="7.01591" y1="18.8532" x2="9.55657" y2="19.4178" gradientUnits="userSpaceOnUse">
<stop stop-color="#FEAC3E"/>
<stop offset="1" stop-color="#F08223"/>
</linearGradient>
<linearGradient id="paint6_linear_85_2272" x1="4.41932" y1="16.8468" x2="6.74826" y2="18.7523" gradientUnits="userSpaceOnUse">
<stop stop-color="#FFA135"/>
<stop offset="1" stop-color="#FEB431"/>
</linearGradient>
<linearGradient id="paint7_linear_85_2272" x1="15.4653" y1="16.8528" x2="13.1422" y2="18.8524" gradientUnits="userSpaceOnUse">
<stop stop-color="#FFAA3D"/>
<stop offset="1" stop-color="#ED8B1C"/>
</linearGradient>
<linearGradient id="paint8_linear_85_2272" x1="10.0795" y1="19.0148" x2="13.0436" y2="18.8502" gradientUnits="userSpaceOnUse">
<stop stop-color="#FF962D"/>
<stop offset="1" stop-color="#E56005"/>
</linearGradient>
<linearGradient id="paint9_linear_85_2272" x1="18.5314" y1="11.8295" x2="17.9355" y2="14.7309" gradientUnits="userSpaceOnUse">
<stop stop-color="#FDBD41"/>
<stop offset="1" stop-color="#FEB334"/>
</linearGradient>
<linearGradient id="paint10_linear_85_2272" x1="19.3131" y1="12.3403" x2="16.4473" y2="17.3037" gradientUnits="userSpaceOnUse">
<stop stop-color="#F6942F"/>
<stop offset="1" stop-color="#EA6F11"/>
</linearGradient>
<linearGradient id="paint11_linear_85_2272" x1="17.3081" y1="6.12471" x2="19.0333" y2="8.68106" gradientUnits="userSpaceOnUse">
<stop stop-color="#FDBD41"/>
<stop offset="1" stop-color="#FEB334"/>
</linearGradient>
<linearGradient id="paint12_linear_85_2272" x1="18.3391" y1="11.6783" x2="19.0135" y2="8.69847" gradientUnits="userSpaceOnUse">
<stop stop-color="#FD9D24"/>
<stop offset="1" stop-color="#FF9515"/>
</linearGradient>
<linearGradient id="paint13_linear_85_2272" x1="15.8196" y1="3.25313" x2="13.1535" y2="1.96712" gradientUnits="userSpaceOnUse">
<stop stop-color="#FCC15B"/>
<stop offset="1" stop-color="#FEE998"/>
</linearGradient>
<linearGradient id="paint14_linear_85_2272" x1="15.8312" y1="3.09004" x2="17.1015" y2="5.913" gradientUnits="userSpaceOnUse">
<stop stop-color="#FF9515"/>
<stop offset="1" stop-color="#FFBE41"/>
</linearGradient>
<radialGradient id="paint15_radial_85_2272" cx="0" cy="0" r="1" gradientUnits="userSpaceOnUse" gradientTransform="translate(9.99963 10.2653) scale(6.99858)">
<stop offset="0.8428" stop-color="#FAAA31"/>
<stop offset="1" stop-color="#F57E16"/>
</radialGradient>
<linearGradient id="paint16_linear_85_2272" x1="9.99987" y1="2.64147" x2="9.99987" y2="17.889" gradientUnits="userSpaceOnUse">
<stop offset="0.0226" stop-color="#FD9A18"/>
<stop offset="0.3764" stop-color="#FEC752"/>
<stop offset="1" stop-color="#FFA422"/>
</linearGradient>
<linearGradient id="paint17_linear_85_2272" x1="10.0004" y1="1.64351" x2="10.0004" y2="18.8361" gradientUnits="userSpaceOnUse">
<stop stop-color="#FFDB69"/>
<stop offset="0.1799" stop-color="#FEE7B0"/>
<stop offset="0.24" stop-color="#FEE9BA"/>
<stop offset="0.2592" stop-color="#FDECD0"/>
<stop offset="0.2953" stop-color="#FEDA92"/>
<stop offset="0.3254" stop-color="#FFCD64"/>
<stop offset="0.3405" stop-color="#FFC853"/>
<stop offset="0.7613" stop-color="#FF9114"/>
<stop offset="1" stop-color="#F57E16"/>
</linearGradient>
</defs>
</svg>
