<svg width="20" height="21" viewBox="0 0 20 21" fill="none" xmlns="http://www.w3.org/2000/svg">
<path d="M10 20.9102C8.6263 20.9102 7.33724 20.6497 6.13281 20.1289C4.92839 19.6146 3.87044 18.9017 2.95898 17.9902C2.04753 17.0723 1.33138 16.0143 0.810547 14.8164C0.296224 13.612 0.0390625 12.3229 0.0390625 10.9492C0.0390625 9.57552 0.296224 8.28646 0.810547 7.08203C1.33138 5.8776 2.04753 4.81966 2.95898 3.9082C3.87044 2.99674 4.92839 2.28385 6.13281 1.76953C7.33724 1.2487 8.6263 0.988281 10 0.988281C11.3737 0.988281 12.6628 1.2487 13.8672 1.76953C15.0716 2.28385 16.1296 2.99674 17.041 3.9082C17.9525 4.81966 18.6654 5.8776 19.1797 7.08203C19.7005 8.28646 19.9609 9.57552 19.9609 10.9492C19.9609 12.3229 19.7005 13.612 19.1797 14.8164C18.6654 16.0143 17.9525 17.0723 17.041 17.9902C16.1296 18.9017 15.0716 19.6146 13.8672 20.1289C12.6628 20.6497 11.3737 20.9102 10 20.9102ZM8.14453 14.8848L13.8867 11.5059C14.0234 11.4212 14.1146 11.3105 14.1602 11.1738C14.2057 11.0306 14.2057 10.8906 14.1602 10.7539C14.1146 10.6107 14.0234 10.5 13.8867 10.4219L8.14453 7.02344C8.0013 6.9388 7.85156 6.90299 7.69531 6.91602C7.53906 6.92904 7.4056 6.98112 7.29492 7.07227C7.19076 7.16341 7.13867 7.29036 7.13867 7.45312V14.4551C7.13867 14.6178 7.19076 14.748 7.29492 14.8457C7.39909 14.9434 7.52604 14.9987 7.67578 15.0117C7.83203 15.0247 7.98828 14.9824 8.14453 14.8848Z" fill="white"/>
</svg>
