<svg width="30" height="18" viewBox="0 0 30 18" fill="none" xmlns="http://www.w3.org/2000/svg">
<path d="M15.0098 10.2383C14.4694 10.2383 13.9681 10.0918 13.5059 9.79883C13.0501 9.50586 12.6823 9.11198 12.4023 8.61719C12.1289 8.11589 11.9922 7.55599 11.9922 6.9375C11.9922 6.32552 12.1289 5.77214 12.4023 5.27734C12.6823 4.78255 13.0501 4.39193 13.5059 4.10547C13.9681 3.81901 14.4694 3.67578 15.0098 3.67578C15.5436 3.67578 16.0384 3.81901 16.4941 4.10547C16.9564 4.38542 17.3275 4.76953 17.6074 5.25781C17.8874 5.74609 18.0273 6.29948 18.0273 6.91797C18.0273 7.54297 17.8874 8.10612 17.6074 8.60742C17.3275 9.10872 16.9564 9.50586 16.4941 9.79883C16.0384 10.0918 15.5436 10.2383 15.0098 10.2383ZM10.0781 17.0352C9.66146 17.0352 9.33594 16.9408 9.10156 16.752C8.86719 16.5697 8.75 16.3158 8.75 15.9902C8.75 15.502 8.89323 14.9909 9.17969 14.457C9.47266 13.9232 9.88932 13.4251 10.4297 12.9629C10.9766 12.4941 11.6341 12.1165 12.4023 11.8301C13.1771 11.5371 14.0462 11.3906 15.0098 11.3906C15.9668 11.3906 16.8294 11.5371 17.5977 11.8301C18.3724 12.1165 19.0299 12.4941 19.5703 12.9629C20.1172 13.4251 20.5339 13.9232 20.8203 14.457C21.1133 14.9909 21.2598 15.502 21.2598 15.9902C21.2598 16.3158 21.1393 16.5697 20.8984 16.752C20.6576 16.9408 20.332 17.0352 19.9219 17.0352H10.0781ZM1.2207 16.8008C0.999349 16.8008 0.810547 16.7259 0.654297 16.5762C0.504557 16.4264 0.429688 16.2409 0.429688 16.0195C0.429688 14.2943 0.673828 12.6504 1.16211 11.0879C1.6569 9.52539 2.35026 8.0931 3.24219 6.79102C4.13411 5.48242 5.18555 4.34635 6.39648 3.38281C7.61393 2.41927 8.94857 1.67383 10.4004 1.14648C11.8522 0.619141 13.3822 0.355469 14.9902 0.355469C16.5918 0.355469 18.1185 0.619141 19.5703 1.14648C21.0286 1.67383 22.3633 2.41927 23.5742 3.38281C24.7917 4.34635 25.8464 5.48242 26.7383 6.79102C27.6367 8.0931 28.3301 9.52539 28.8184 11.0879C29.3132 12.6504 29.5605 14.2943 29.5605 16.0195C29.5605 16.2409 29.4824 16.4264 29.3262 16.5762C29.1699 16.7259 28.9811 16.8008 28.7598 16.8008C28.5449 16.8008 28.3626 16.7259 28.2129 16.5762C28.0632 16.4264 27.9883 16.2409 27.9883 16.0195C27.9883 14.4635 27.7669 12.9824 27.3242 11.5762C26.888 10.1699 26.2695 8.88086 25.4688 7.70898C24.6745 6.53711 23.7337 5.51823 22.6465 4.65234C21.5658 3.78646 20.3776 3.11589 19.082 2.64062C17.7865 2.16536 16.4225 1.92773 14.9902 1.92773C13.5579 1.92773 12.1908 2.16536 10.8887 2.64062C9.5931 3.11589 8.40495 3.78646 7.32422 4.65234C6.24349 5.51823 5.30273 6.53711 4.50195 7.70898C3.70768 8.88086 3.09245 10.1699 2.65625 11.5762C2.22005 12.9824 2.00195 14.4635 2.00195 16.0195C2.00195 16.2409 1.92383 16.4264 1.76758 16.5762C1.61784 16.7259 1.43555 16.8008 1.2207 16.8008ZM5.74219 16.8008C5.52734 16.8008 5.3418 16.7259 5.18555 16.5762C5.03581 16.4264 4.96094 16.2441 4.96094 16.0293C4.96094 14.6556 5.19857 13.3503 5.67383 12.1133C6.1556 10.8698 6.82617 9.76302 7.68555 8.79297C8.55143 7.81641 9.56055 7.04167 10.7129 6.46875C10.6738 6.76172 10.6608 7.05143 10.6738 7.33789C10.6934 7.61784 10.7422 7.9043 10.8203 8.19727C9.95443 8.73763 9.19922 9.41146 8.55469 10.2188C7.91667 11.0195 7.42188 11.9147 7.07031 12.9043C6.72526 13.8939 6.55273 14.9355 6.55273 16.0293C6.55273 16.2441 6.47135 16.4264 6.30859 16.5762C6.14583 16.7259 5.95703 16.8008 5.74219 16.8008ZM24.248 16.8008C24.0332 16.8008 23.8444 16.7259 23.6816 16.5762C23.5254 16.4264 23.4473 16.2441 23.4473 16.0293C23.4473 14.9421 23.2715 13.9069 22.9199 12.9238C22.5749 11.9342 22.0833 11.0358 21.4453 10.2285C20.8138 9.42122 20.0651 8.75065 19.1992 8.2168C19.2708 7.92383 19.3164 7.63411 19.3359 7.34766C19.3555 7.05469 19.3522 6.76823 19.3262 6.48828C20.472 7.06771 21.4714 7.84245 22.3242 8.8125C23.1836 9.78255 23.8509 10.8861 24.3262 12.123C24.8014 13.36 25.0391 14.6621 25.0391 16.0293C25.0391 16.2441 24.9609 16.4264 24.8047 16.5762C24.6484 16.7259 24.4629 16.8008 24.248 16.8008Z" fill="#005051"/>
</svg>
